<svg width="25" height="26" viewBox="0 0 25 26" fill="none" xmlns="http://www.w3.org/2000/svg">
<path d="M20.9999 15.0001H11.4124L11.7061 14.7063L14.2136 12.1988C15.2264 12.7089 16.3423 12.9808 17.4761 12.9938C18.6174 12.9968 19.7374 12.6845 20.7124 12.0913C23.6774 10.2963 25.2661 6.14133 24.9624 0.976335C24.9481 0.731691 24.8445 0.500811 24.6712 0.327527C24.4979 0.154244 24.267 0.0506217 24.0224 0.0363349C18.8574 -0.266165 14.7024 1.32134 12.9074 4.28633C11.7374 6.21759 11.7074 8.55009 12.7986 10.7863L10.9999 12.5851L9.47364 11.0588C10.2236 9.40259 10.1699 7.68383 9.29989 6.24883C7.94114 4.00008 4.82614 2.80134 0.966136 3.02759C0.721917 3.04214 0.491505 3.14571 0.318509 3.31871C0.145513 3.4917 0.0419383 3.72212 0.0273865 3.96633C-0.200113 7.82508 0.999886 10.9401 3.24989 12.3001C4.00263 12.7597 4.86792 13.002 5.74989 13.0001C6.55002 12.9921 7.33926 12.8136 8.06489 12.4763L9.58489 14.0001L8.58489 15.0001H2.99989C2.73467 15.0001 2.48032 15.1054 2.29278 15.293C2.10524 15.4805 1.99989 15.7349 1.99989 16.0001C1.99989 16.2653 2.10524 16.5197 2.29278 16.7072C2.48032 16.8947 2.73467 17.0001 2.99989 17.0001H4.19864L5.84989 24.4338C5.94668 24.8791 6.19341 25.2776 6.54882 25.5627C6.90423 25.8478 7.34676 26.0022 7.80239 26.0001H16.1986C16.6543 26.0022 17.0968 25.8478 17.4522 25.5627C17.8076 25.2776 18.0543 24.8791 18.1511 24.4338L19.8024 17.0001H20.9999C21.2651 17.0001 21.5195 16.8947 21.707 16.7072C21.8945 16.5197 21.9999 16.2653 21.9999 16.0001C21.9999 15.7349 21.8945 15.4805 21.707 15.293C21.5195 15.1054 21.2651 15.0001 20.9999 15.0001ZM14.6249 5.32259C15.9324 3.16509 19.0299 1.94758 22.9999 2.00133C23.0511 5.97758 21.8361 9.07384 19.6786 10.3763C18.2399 11.2513 16.5036 11.1938 14.7686 10.2288C13.8024 8.50008 13.7499 6.76134 14.6249 5.32259ZM7.51364 10.5138C6.36364 11.1301 5.22489 11.1588 4.28489 10.5888C2.84739 9.71758 2.01864 7.66383 1.99989 5.00008C4.66364 5.01884 6.71864 5.84758 7.58864 7.28508C8.15864 8.22508 8.12489 9.36384 7.51364 10.5138ZM16.1986 24.0001H7.80239L6.24989 17.0001H17.7499L16.1986 24.0001Z" fill="#101010"/>
</svg>
